# xmcd
#
# Track frame offsets:
#	150
#	21864
#	37301
#	54726
#	76699
#	95455
#	111801
#	128778
#	146355
#	164701
#	181076
#	196543
#	216162
#	241578
#	257426
#	276473
#	304761
#
# Disc length: 4072 seconds
#
# Revision: 1
# Processed by: cddbd v1.5.1PL2 Copyright (c) Steve Scherf et al.
# Submitted via: audiograbber 1.83.01
#
DISCID=e60fe611
DTITLE=Sound Choice - SC8916R
DYEAR=2005
DGENRE=Karaoke
TTITLE0=Lonestar - Class Reunion (That Used To Be Us)
TTITLE1=Adkins, Trace - Rough and Ready*
TTITLE2=Wilson, Gretchen - Holdin' You
TTITLE3=Robison, Charlie - El Cerrito Place
TTITLE4=Big and Rich - Six Foot Town
TTITLE5=Chesney, Kenny - Old Blue Chair
TTITLE6=McGraw, Tim - Walk Like A Man
TTITLE7=Womack, Lee Ann - I May Hate Myself In The Morning
TTITLE8=Elam, Katrina - I Want A Cowboy
TTITLE9=Adkins, Trace - Songs About Me
TTITLE10=Roberts, Julie - Wake Up Older
TTITLE11=Sugarland - Baby Girl
TTITLE12=Chesney, Kenny - Anything But Mine
TTITLE13=Messina, Jo Dee - My Give A Damn's Busted
TTITLE14=McGraw, Tim - Do You Want Fries With That
TTITLE15=Chesney, Kenny - Old Blue Chair (Ocean Mix)
TTITLE16=Data - Data Track
EXTD=
EXTT0=
EXTT1=
EXTT2=
EXTT3=
EXTT4=
EXTT5=
EXTT6=
EXTT7=
EXTT8=
EXTT9=
EXTT10=
EXTT11=
EXTT12=
EXTT13=
EXTT14=
EXTT15=
EXTT16=
PLAYORDER=
